<svg width="116" height="36" viewBox="0 0 116 36" fill="none" xmlns="http://www.w3.org/2000/svg">
<g clip-path="url(#clip0_31_7441)">
<g clip-path="url(#clip1_31_7441)">
<g clip-path="url(#clip2_31_7441)">
<path fill-rule="evenodd" clip-rule="evenodd" d="M-0.00585938 36V13.5H22.4266V0H58.3216V36H-0.00585938ZM20.7691 24.765C20.7691 20.88 23.0116 18.225 26.8291 18.225C30.6766 18.225 32.8891 20.88 32.8891 24.765C32.8891 28.6575 30.6391 31.41 26.8291 31.41C23.0116 31.41 20.7691 28.6575 20.7691 24.765ZM72.1666 24C70.5016 24 69.5341 22.785 69.5341 21.2025C69.5341 19.635 70.5016 18.4275 72.1666 18.4275C73.8391 18.4275 74.8141 19.5975 74.8141 21.2025C74.8141 22.785 73.8391 24 72.1666 24ZM79.1341 22.1175L80.1316 22.245C79.8991 23.385 78.9616 24 77.8591 24C76.1491 24 75.3541 22.785 75.3541 21.2025C75.3541 19.635 76.1791 18.4275 77.8891 18.4275C78.9316 18.4275 79.7041 18.93 80.0716 19.8675L79.0891 20.265C78.8641 19.695 78.4591 19.335 77.8216 19.335C76.7191 19.335 76.3891 20.205 76.3891 21.18C76.3891 22.1775 76.7941 23.055 77.8891 23.055C78.5641 23.085 78.9616 22.7475 79.1341 22.1175ZM88.0291 24C86.3491 24 85.4191 22.785 85.4191 21.2025C85.4191 19.635 86.3491 18.4275 88.0291 18.4275C89.7016 18.4275 90.6691 19.5975 90.6691 21.2025C90.6691 22.785 89.7016 24 88.0291 24ZM99.8041 22.1175L100.802 22.245C100.569 23.385 99.6316 24 98.5291 24C96.8191 24 96.0166 22.785 96.0166 21.2025C96.0166 19.635 96.8641 18.4275 98.5591 18.4275C99.6016 18.4275 100.374 18.93 100.742 19.8675L99.7666 20.265C99.5341 19.695 99.1291 19.335 98.4916 19.335C97.3891 19.335 97.0591 20.205 97.0591 21.18C97.0591 22.1775 97.4641 23.055 98.5591 23.055C99.2716 23.085 99.6316 22.7475 99.8041 22.1175ZM63.1666 23.925V18.525H65.0791L66.0241 22.9875H66.1516L66.9916 18.525H68.8891V23.8875H67.8916V19.47H67.7641L66.9166 23.925H65.2141L64.3141 19.47H64.1791V23.925H63.1666ZM80.9041 23.8875V18.525H81.9016V20.61H82.4416L84.0841 18.525H85.3216L83.3116 21.0075L85.3816 23.8875H84.1516L82.4416 21.5475H81.9016V23.8875H80.9041ZM91.3441 23.8875V18.525H93.7816C94.6516 18.525 95.3491 18.9 95.3491 19.8375C95.3491 20.475 95.1241 20.9325 94.5541 21.15C95.1541 21.3075 95.4916 21.78 95.4916 22.4175C95.4916 23.385 94.7791 23.8875 93.8491 23.8875H91.3441ZM101.612 23.8875V18.525H102.609V20.61H103.149L104.784 18.525H106.022L104.049 21.045L106.119 23.8875H104.882L103.179 21.5475H102.639V23.8875H101.612ZM106.262 23.8875L108.062 18.525H109.532L111.339 23.8875H110.267L109.839 22.515H107.694L107.259 23.8875H106.262ZM11.7016 28.89H12.2041L14.5516 18.54H18.8266V31.035H16.5916V20.715H16.1191L13.8391 31.035H10.0591L7.81664 20.715H7.35164V31.11H5.13914V18.57H9.39164L11.7016 28.89ZM46.6366 31.065H44.2291L47.9791 24.435L44.4991 18.54H46.9066L49.4941 22.9875L52.0291 18.54H54.4366L50.7916 24.495L54.6691 31.065H52.2616L49.3516 26.1075L46.6366 31.065ZM111.812 23.8875L112.037 22.4475C112.112 21.975 112.344 21.645 112.779 21.45C112.209 21.2025 111.842 20.6775 111.842 20.0625C111.842 19.065 112.779 18.555 113.679 18.555H115.922V23.925H114.924V21.8475H113.747C113.282 21.8475 113.079 22.0125 113.012 22.515L112.779 23.8875H111.812ZM42.6616 31.065H34.8316V18.57H42.6616V20.745H37.0966V23.7H41.8891V25.7775H37.0966V28.89H42.6616V31.065ZM72.2041 23.085C73.3141 23.085 73.7791 22.245 73.7791 21.2025C73.7791 20.1675 73.2391 19.365 72.1366 19.365C71.0341 19.365 70.5991 20.205 70.5991 21.2025C70.5691 22.215 71.0716 23.085 72.2041 23.085ZM88.0291 23.085C89.1316 23.085 89.6041 22.245 89.6041 21.2025C89.6041 20.1675 89.0641 19.365 87.9616 19.365C86.8591 19.365 86.4241 20.205 86.4241 21.2025C86.4241 22.215 86.9191 23.085 88.0291 23.085ZM92.3416 20.7075H93.6541C94.0816 20.7075 94.4116 20.505 94.4116 20.0625C94.4116 19.5975 94.1116 19.4325 93.6541 19.4325H92.3416V20.7075ZM107.994 21.615H109.532L108.872 19.47H108.632L107.994 21.615ZM114.992 20.9325V19.47H113.822C113.282 19.47 112.914 19.635 112.914 20.205C112.914 20.775 113.282 20.9325 113.822 20.9325H114.992ZM23.0791 24.795C23.0791 27.2775 24.2941 29.1975 26.8291 29.1975C29.3716 29.1975 30.5791 27.2775 30.5791 24.795C30.5791 22.32 29.3716 20.4075 26.8291 20.4075C24.2491 20.4075 23.0791 22.32 23.0791 24.795ZM92.3416 22.9875H93.7141C94.1791 22.9875 94.5541 22.815 94.5541 22.3125C94.5541 21.8175 94.2091 21.615 93.7141 21.615H92.3416V22.9875ZM63.1666 31.095V25.695H67.0891V26.64H64.1791V27.72H65.6116C66.6766 27.72 67.3216 28.1775 67.3216 29.355C67.3216 30.4575 66.6466 31.095 65.6116 31.095H63.1666ZM67.9591 31.065V25.695H68.9641V30.1575H69.1291L70.5016 25.695H72.3691V31.065H71.3716V26.61H71.1991L69.8641 31.065H67.9591ZM73.3141 31.065V25.695H75.5491C76.6516 25.695 77.4241 26.37 77.4241 27.51C77.4241 28.65 76.6516 29.3175 75.5491 29.3175H74.3116V31.065H73.3141ZM77.4616 31.065L79.1341 28.215L77.4916 25.695H78.6916L79.9291 27.8175H80.3341V25.695H81.3391V27.8175H81.7441L82.9441 25.695H84.1516L82.5091 28.215L84.1816 31.065H83.0116L81.7441 28.7175H81.3391V31.065H80.3341V28.7175H79.9291L78.6616 31.065H77.4616ZM84.4141 31.065L86.2216 25.695H87.6916L89.4991 31.065H88.4341L87.9916 29.685H85.8541L85.4191 31.065H84.4141ZM74.3116 28.4175H75.5491C76.0816 28.4175 76.4191 28.0125 76.4191 27.48C76.4191 26.9325 76.1191 26.61 75.5491 26.61H74.3116V28.4175ZM86.1541 28.785H87.6916L87.0241 26.64H86.7916L86.1541 28.785ZM64.1791 30.1275H65.4841C65.9791 30.1275 66.3541 29.8575 66.3541 29.355C66.3541 28.86 65.9791 28.62 65.4841 28.62H64.1791V30.1275Z" fill="#FF0508"/>
</g>
</g>
</g>
<defs>
<clipPath id="clip0_31_7441">
<rect width="115.92" height="36" fill="white"/>
</clipPath>
<clipPath id="clip1_31_7441">
<rect width="115.92" height="36" fill="white"/>
</clipPath>
<clipPath id="clip2_31_7441">
<rect width="115.93" height="36" fill="white" transform="translate(-0.00585938)"/>
</clipPath>
</defs>
</svg>
